<svg xmlns="http://www.w3.org/2000/svg" viewBox="0 0 47.5 47.5" id="chicken"><defs><clipPath id="a"><path d="M0 38h38V0H0v38Z"></path></clipPath></defs><g clip-path="url(#a)" transform="matrix(1.25 0 0 -1.25 0 47.5)"><path fill="#e1e8ed" d="M21.143 4.785a2.143 2.143 0 1 0-4.286 0 2.143 2.143 0 0 0 4.286 0"></path><path fill="#e1e8ed" d="M28.643 21.357C28.643 26.683 24.325 31 19 31c-5.325 0-9.643-4.317-9.643-9.643C9.357 16 8.286 4.785 8.286 4.785a2.143 2.143 0 0 1 4.286 0 2.143 2.143 0 0 1 4.285 0h4.286a2.144 2.144 0 0 1 4.286 0 2.143 2.143 0 0 1 4.285 0S28.643 16 28.643 21.357"></path><path fill="#dd2e44" d="M21 34c0-2.209-1.447-6-2-6-.552 0-2 3.791-2 6s1.448 3 2 3c.553 0 2-.791 2-3M16.635 4c0 2.612 1.711 8 2.365 8 .654 0 2.365-5.388 2.365-8S19.653 1 19 1c-.654 0-2.365.388-2.365 3"></path><path fill="#f4900c" d="M26 14.5c0-1.5-4.791-4.5-7-4.5-2.209 0-7 3-7 4.5s4.791 4.5 7 4.5c2.209 0 7-3 7-4.5"></path><path fill="#ffac33" d="M26 14.5c0-1.5-14-1.5-14 0s4.791 4.5 7 4.5c2.209 0 7-3 7-4.5"></path><path fill="#292f33" d="M14 18.5a1.5 1.5 0 1 0-3 0 1.5 1.5 0 0 0 3 0M27 18.5a1.5 1.5 0 1 0-3.001.001A1.5 1.5 0 0 0 27 18.5"></path></g></svg>